{
  "accessors": [
    {
      "bufferView": 3,
      "componentType": 5126,
      "count": 10914,
      "max": [
        579.1524047851563,
        866.7490844726563,
        728.3607788085938
      ],
      "min": [
        -578.7379760742188,
        -1.8326510190963745,
        -616.6519165039063
      ],
      "type": "VEC3"
    },
    {
      "bufferView": 3,
      "byteOffset": 130968,
      "componentType": 5126,
      "count": 10914,
      "max": [
        1.0,
        0.9999775290489197,
        1.0
      ],
      "min": [
        -1.0,
        -0.9999838471412659,
        -1.0
      ],
      "type": "VEC3"
    },
    {
      "bufferView": 2,
      "componentType": 5126,
      "count": 10914,
      "max": [
        2.8838860988616943,
        1.8326079845428467
      ],
      "min": [
        -1.8838859796524048,
        -1.8838859796524048
      ],
      "type": "VEC2"
    },
    {
      "bufferView": 1,
      "componentType": 5125,
      "count": 34854,
      "type": "SCALAR"
    },
    {
      "bufferView": 3,
      "byteOffset": 261936,
      "componentType": 5126,
      "count": 14984,
      "max": [
        595.9464721679688,
        1052.1009521484375,
        726.0100708007813
      ],
      "min": [
        -590.3463745117188,
        -7.733335018157959,
        -639.5784301757813
      ],
      "type": "VEC3"
    },
    {
      "bufferView": 3,
      "byteOffset": 441744,
      "componentType": 5126,
      "count": 14984,
      "max": [
        0.9969451427459717,
        1.0,
        0.9998694658279419
      ],
      "min": [
        -0.997679591178894,
        -0.99997478723526,
        -0.9991888403892517
      ],
      "type": "VEC3"
    },
    {
      "bufferView": 2,
      "byteOffset": 87312,
      "componentType": 5126,
      "count": 14984,
      "max": [
        2.967374086380005,
        3.4091451168060303
      ],
      "min": [
        -1.870455026626587,
        -1.8769010305404663
      ],
      "type": "VEC2"
    },
    {
      "bufferView": 1,
      "byteOffset": 139416,
      "componentType": 5125,
      "count": 38283,
      "type": "SCALAR"
    },
    {
      "bufferView": 3,
      "byteOffset": 621552,
      "componentType": 5126,
      "count": 38959,
      "max": [
        579.1524047851563,
        1052.1009521484375,
        726.0100708007813
      ],
      "min": [
        -578.7379760742188,
        -1.8648860454559326,
        -616.8319702148438
      ],
      "type": "VEC3"
    },
    {
      "bufferView": 3,
      "byteOffset": 1089060,
      "componentType": 5126,
      "count": 38959,
      "max": [
        1.0,
        1.0,
        1.0
      ],
      "min": [
        -1.0,
        -1.0,
        -1.0
      ],
      "type": "VEC3"
    },
    {
      "bufferView": 2,
      "byteOffset": 207184,
      "componentType": 5126,
      "count": 38959,
      "max": [
        3.069601058959961,
        5.606210231781006
      ],
      "min": [
        -1.870455026626587,
        -1.877163052558899
      ],
      "type": "VEC2"
    },
    {
      "bufferView": 1,
      "byteOffset": 292548,
      "componentType": 5125,
      "count": 125277,
      "type": "SCALAR"
    },
    {
      "bufferView": 5,
      "componentType": 5126,
      "count": 6,
      "max": [
        1.0,
        0.0,
        0.0,
        0.0,
        0.0,
        1.0,
        0.0,
        0.0,
        0.0,
        0.0,
        1.0,
        0.0,
        0.0,
        0.0,
        194.09100341796875,
        1.0
      ],
      "min": [
        1.0,
        0.0,
        0.0,
        0.0,
        0.0,
        1.0,
        0.0,
        0.0,
        0.0,
        0.0,
        1.0,
        0.0,
        0.0,
        -1005.2230224609375,
        0.0,
        1.0
      ],
      "type": "MAT4"
    },
    {
      "bufferView": 0,
      "componentType": 5123,
      "count": 10914,
      "type": "VEC4"
    },
    {
      "bufferView": 4,
      "componentType": 5126,
      "count": 10914,
      "max": [
        1.0,
        0.0,
        0.0,
        0.0
      ],
      "min": [
        1.0,
        0.0,
        0.0,
        0.0
      ],
      "type": "VEC4"
    },
    {
      "bufferView": 0,
      "byteOffset": 87312,
      "componentType": 5123,
      "count": 14984,
      "type": "VEC4"
    },
    {
      "bufferView": 4,
      "byteOffset": 174624,
      "componentType": 5126,
      "count": 14984,
      "max": [
        1.0,
        0.0,
        0.0,
        0.0
      ],
      "min": [
        1.0,
        0.0,
        0.0,
        0.0
      ],
      "type": "VEC4"
    },
    {
      "bufferView": 0,
      "byteOffset": 207184,
      "componentType": 5123,
      "count": 38959,
      "type": "VEC4"
    },
    {
      "bufferView": 4,
      "byteOffset": 414368,
      "componentType": 5126,
      "count": 38959,
      "max": [
        1.0,
        0.0,
        0.0,
        0.0
      ],
      "min": [
        1.0,
        0.0,
        0.0,
        0.0
      ],
      "type": "VEC4"
    }
  ],
  "asset": {
    "extras": {
      "author": "local.yany (https://sketchfab.com/local.yany)",
      "license": "CC-BY-4.0 (http://creativecommons.org/licenses/by/4.0/)",
      "source": "https://sketchfab.com/3d-models/egyptian-ruins-19337b2afcc94f689203b2c9bf6c9f85",
      "title": "Egyptian Ruins"
    },
    "generator": "Sketchfab-16.72.0",
    "version": "2.0"
  },
  "bufferViews": [
    {
      "buffer": 0,
      "byteLength": 518856,
      "byteStride": 8,
      "name": "shortBufferViews",
      "target": 34962
    },
    {
      "buffer": 0,
      "byteLength": 793656,
      "byteOffset": 518856,
      "name": "floatBufferViews",
      "target": 34963
    },
    {
      "buffer": 0,
      "byteLength": 518856,
      "byteOffset": 1312512,
      "byteStride": 8,
      "name": "floatBufferViews",
      "target": 34962
    },
    {
      "buffer": 0,
      "byteLength": 1556568,
      "byteOffset": 1831368,
      "byteStride": 12,
      "name": "floatBufferViews",
      "target": 34962
    },
    {
      "buffer": 0,
      "byteLength": 1037712,
      "byteOffset": 3387936,
      "byteStride": 16,
      "name": "floatBufferViews",
      "target": 34962
    },
    {
      "buffer": 0,
      "byteLength": 384,
      "byteOffset": 4425648,
      "name": "floatBufferViews"
    }
  ],
  "buffers": [
    {
      "byteLength": 4426032,
      "uri": "scene.bin"
    }
  ],
  "images": [
    {
      "uri": "textures/Sandstone03_baseColor.jpeg"
    },
    {
      "uri": "textures/Sandstone02_baseColor.jpeg"
    },
    {
      "uri": "textures/Sandstone01_baseColor.jpeg"
    }
  ],
  "materials": [
    {
      "doubleSided": true,
      "name": "Sandstone03",
      "pbrMetallicRoughness": {
        "baseColorTexture": {
          "index": 0
        },
        "metallicFactor": 0.0,
        "roughnessFactor": 0.9577051494623774
      }
    },
    {
      "doubleSided": true,
      "name": "Sandstone02",
      "pbrMetallicRoughness": {
        "baseColorTexture": {
          "index": 1
        },
        "metallicFactor": 0.0,
        "roughnessFactor": 0.9577051494623774
      }
    },
    {
      "doubleSided": true,
      "name": "Sandstone01",
      "pbrMetallicRoughness": {
        "baseColorTexture": {
          "index": 2
        },
        "metallicFactor": 0.0,
        "roughnessFactor": 0.9577051494623774
      }
    }
  ],
  "meshes": [
    {
      "name": "Egyptian Ruin 03.Shape_Sandstone03_0",
      "primitives": [
        {
          "attributes": {
            "JOINTS_0": 13,
            "NORMAL": 1,
            "POSITION": 0,
            "TEXCOORD_0": 2,
            "WEIGHTS_0": 14
          },
          "indices": 3,
          "material": 0,
          "mode": 4
        }
      ]
    },
    {
      "name": "Egyptian Ruin 03.Shape_Sandstone02_0",
      "primitives": [
        {
          "attributes": {
            "JOINTS_0": 15,
            "NORMAL": 5,
            "POSITION": 4,
            "TEXCOORD_0": 6,
            "WEIGHTS_0": 16
          },
          "indices": 7,
          "material": 1,
          "mode": 4
        }
      ]
    },
    {
      "name": "Egyptian Ruin 03.Shape_Sandstone01_0",
      "primitives": [
        {
          "attributes": {
            "JOINTS_0": 17,
            "NORMAL": 9,
            "POSITION": 8,
            "TEXCOORD_0": 10,
            "WEIGHTS_0": 18
          },
          "indices": 11,
          "material": 2,
          "mode": 4
        }
      ]
    }
  ],
  "nodes": [
    {
      "children": [
        1
      ],
      "matrix": [
        1.0,
        0.0,
        0.0,
        0.0,
        0.0,
        2.220446049250313e-16,
        -1.0,
        0.0,
        0.0,
        1.0,
        2.220446049250313e-16,
        0.0,
        0.0,
        0.0,
        0.0,
        1.0
      ],
      "name": "Sketchfab_model"
    },
    {
      "children": [
        2
      ],
      "matrix": [
        0.009999999776482582,
        0.0,
        0.0,
        0.0,
        0.0,
        0.0,
        0.009999999776482582,
        0.0,
        0.0,
        -0.009999999776482582,
        0.0,
        0.0,
        0.0,
        0.0,
        0.0,
        1.0
      ],
      "name": "Egyptian Ruins.fbx"
    },
    {
      "children": [
        3
      ],
      "name": "RootNode"
    },
    {
      "children": [
        4,
        5,
        6,
        7
      ],
      "name": "Object_3"
    },
    {
      "children": [
        8
      ],
      "name": "_rootJoint"
    },
    {
      "mesh": 0,
      "name": "Object_5",
      "skin": 0
    },
    {
      "mesh": 1,
      "name": "Object_6",
      "skin": 0
    },
    {
      "mesh": 2,
      "name": "Object_7",
      "skin": 0
    },
    {
      "children": [
        9,
        13
      ],
      "name": "Egyptian Ruin 03_00"
    },
    {
      "children": [
        10,
        12
      ],
      "name": "Base_01"
    },
    {
      "children": [
        11
      ],
      "name": "Pillars_02"
    },
    {
      "name": "Lintel_03",
      "translation": [
        0.0,
        1005.2230224609375,
        -194.09100341796875
      ]
    },
    {
      "name": "Rocks_04"
    },
    {
      "name": "Egyptian Ruin 03.Shape"
    }
  ],
  "samplers": [
    {
      "magFilter": 9729,
      "minFilter": 9987,
      "wrapS": 10497,
      "wrapT": 10497
    }
  ],
  "scene": 0,
  "scenes": [
    {
      "name": "Sketchfab_Scene",
      "nodes": [
        0
      ]
    }
  ],
  "skins": [
    {
      "inverseBindMatrices": 12,
      "joints": [
        4,
        8,
        9,
        10,
        11,
        12
      ],
      "skeleton": 4
    }
  ],
  "textures": [
    {
      "sampler": 0,
      "source": 0
    },
    {
      "sampler": 0,
      "source": 1
    },
    {
      "sampler": 0,
      "source": 2
    }
  ]
}
